# This file uses centimeters as units for non-parametric coordinates.

mtllib Hoed.mtl
g default
v 1.896849 3.136349 0.033514
v 1.855999 3.154895 -0.042403
v 1.777519 3.148859 -0.104433
v 1.685909 3.120560 -0.134083
v 1.609333 3.078310 -0.121459
v 1.565046 3.032771 -0.071703
v 1.560812 2.995318 -0.000358
v 1.601868 2.976814 0.075670
v 1.680476 2.982876 0.137769
v 1.772020 3.011162 0.167383
v 1.848450 3.053382 0.154681
v 1.892594 3.098892 0.104848
v 1.775354 3.239995 0.076863
v 1.758361 3.257657 0.025272
v 1.708855 3.255384 -0.016944
v 1.649034 3.235588 -0.033656
v 1.603980 3.205401 -0.015508
v 1.614163 3.178435 0.047716
v 1.621757 3.143816 0.099077
v 1.602015 3.114940 0.125001
v 1.638756 3.120958 0.161841
v 1.688145 3.132358 0.171360
v 1.691121 3.157819 0.136465
v 1.727262 3.201266 0.108678
v 1.670651 3.190047 0.078392
v 2.029084 3.243719 0.067851
v 1.955830 3.280756 -0.075891
v 1.821942 3.228341 -0.216616
v 1.624705 3.213914 -0.254369
v 1.462118 3.129269 -0.237747
v 1.395298 3.095100 -0.175563
v 1.368262 2.968736 -0.003497
v 1.462141 2.935862 0.151362
v 1.634230 2.907276 0.251882
v 1.793406 3.002733 0.329916
v 1.935802 3.083302 0.302410
v 1.998176 3.195962 0.210211
v 1.589629 3.086968 -0.137865
v 1.539702 3.034935 -0.080375
v 1.534008 2.991832 0.000958
v 1.580167 2.970437 0.087624
v 1.670252 2.977380 0.158796
v 1.775178 3.009803 0.192736
v 1.861898 3.058021 0.177693
v 1.911293 3.110141 0.119523
v 1.917344 3.153122 0.038775
v 1.871436 3.174567 -0.047756
v 1.781496 3.167653 -0.118849
v 1.676507 3.135218 -0.152824
v 1.553387 3.102992 -0.168086
v 1.491903 3.043204 -0.093860
v 1.484650 2.985423 0.003471
v 1.539928 2.958627 0.109622
v 1.654405 2.960761 0.194421
v 1.781177 3.007326 0.239657
v 1.886628 3.066568 0.220140
v 1.941517 3.135379 0.145638
v 1.955066 3.184077 0.048421
v 1.900116 3.210939 -0.057553
v 1.791880 3.195900 -0.148694
v 1.658985 3.162263 -0.187524
v 1.497437 3.114485 -0.208677
v 1.420709 3.057369 -0.112677
v 1.415895 2.975014 -0.005161
v 1.500388 2.947045 0.130961
v 1.646444 2.928550 0.221254
v 1.787299 3.004962 0.285607
v 1.911192 3.074997 0.261807
v 1.966647 3.169755 0.177200
v 1.992295 3.214378 0.058055
v 1.928392 3.246504 -0.066968
v 1.809528 3.207491 -0.185777
v 1.641623 3.188616 -0.221538
v 1.602676 3.088657 0.116420
v 1.618962 3.118524 0.085739
v 1.609414 3.153197 0.028586
v 1.603555 3.181409 -0.036037
v 1.656797 3.214312 -0.051911
v 1.721661 3.235515 -0.033262
v 1.775678 3.238310 0.012167
v 1.799415 3.220946 0.069533
v 1.752772 3.182135 0.105857
v 1.711060 3.137114 0.135383
v 1.703003 3.108929 0.170460
v 1.646769 3.095232 0.156942
v 1.591777 3.049470 0.101151
v 1.575261 3.074211 0.048295
v 1.566098 3.104476 -0.022142
v 1.594543 3.142414 -0.072462
v 1.664136 3.180271 -0.082848
v 1.741577 3.204618 -0.058638
v 1.807337 3.209178 -0.005662
v 1.845166 3.193006 0.062626
v 1.830212 3.157791 0.120217
v 1.777734 3.115083 0.157429
v 1.733886 3.078140 0.177783
v 1.657150 3.057300 0.152886
v 1.595354 3.007416 0.086264
v 1.556367 3.025121 0.013800
v 1.560449 3.060880 -0.054282
v 1.602684 3.104342 -0.101799
v 1.675577 3.144631 -0.113959
v 1.762854 3.171610 -0.085748
v 1.837581 3.177333 -0.026638
v 1.876362 3.159587 0.045716
v 1.872243 3.123825 0.113768
v 1.830162 3.080390 0.161378
v 1.757417 3.040131 0.173617
v 1.670229 3.013183 0.145428
v 1.733669 3.206469 0.104913
v 1.760164 3.187331 0.101909
v 1.833142 3.162389 0.113274
v 1.872704 3.128401 0.104997
v 1.893055 3.103686 0.095638
v 1.911912 3.115634 0.109057
v 1.942970 3.141076 0.132242
v 1.968617 3.175597 0.160334
v 1.999612 3.203584 0.190806
v 1.815886 3.102372 0.025349
v 1.794720 3.111981 -0.013988
v 1.754054 3.108854 -0.046129
v 1.706586 3.094190 -0.061492
v 1.666908 3.072298 -0.054951
v 1.643960 3.048702 -0.029170
v 1.641766 3.029296 0.007798
v 1.663040 3.019708 0.047193
v 1.703771 3.022849 0.079370
v 1.751205 3.037505 0.094714
v 1.790808 3.059382 0.088132
v 1.813682 3.082963 0.062311
v 1.813921 3.085447 0.057539
vt 0.375000 0.312500
vt 0.395833 0.312500
vt 0.416667 0.312500
vt 0.437500 0.312500
vt 0.458333 0.312500
vt 0.479167 0.312500
vt 0.500000 0.312500
vt 0.520833 0.312500
vt 0.541667 0.312500
vt 0.562500 0.312500
vt 0.583333 0.312500
vt 0.604167 0.312500
vt 0.625000 0.312500
vt 0.375000 0.688440
vt 0.395833 0.688440
vt 0.416667 0.688440
vt 0.437500 0.688440
vt 0.458333 0.688440
vt 0.479167 0.688440
vt 0.500000 0.688440
vt 0.520833 0.688440
vt 0.541667 0.688440
vt 0.562500 0.688440
vt 0.583333 0.688440
vt 0.604167 0.688440
vt 0.625000 0.688440
vt 0.635316 0.765625
vt 0.578125 0.708434
vt 0.500000 0.687500
vt 0.421875 0.708434
vt 0.364684 0.765625
vt 0.343750 0.843750
vt 0.364684 0.921875
vt 0.421875 0.979066
vt 0.500000 1.000000
vt 0.578125 0.979066
vt 0.635316 0.921875
vt 0.656250 0.843750
vt 0.500000 0.837500
vt 0.000000 0.000000
vt 1.000000 0.000000
vt 1.000000 1.000000
vt 0.000000 1.000000
vt 0.000000 0.000000
vt 1.000000 0.000000
vt 1.000000 1.000000
vt 0.000000 1.000000
vt 0.000000 0.000000
vt 1.000000 0.000000
vt 1.000000 1.000000
vt 0.000000 1.000000
vt 0.000000 0.000000
vt 1.000000 0.000000
vt 1.000000 1.000000
vt 0.000000 1.000000
vt 0.000000 0.000000
vt 1.000000 0.000000
vt 1.000000 1.000000
vt 0.000000 1.000000
vt 0.000000 0.000000
vt 1.000000 0.000000
vt 1.000000 1.000000
vt 0.000000 1.000000
vt 0.000000 0.000000
vt 1.000000 0.000000
vt 1.000000 1.000000
vt 0.000000 1.000000
vt 0.000000 0.000000
vt 1.000000 0.000000
vt 1.000000 1.000000
vt 0.000000 1.000000
vt 0.000000 0.000000
vt 1.000000 0.000000
vt 1.000000 1.000000
vt 0.000000 1.000000
vt 0.000000 0.000000
vt 1.000000 0.000000
vt 1.000000 1.000000
vt 0.000000 1.000000
vt 0.000000 0.000000
vt 1.000000 0.000000
vt 1.000000 1.000000
vt 0.000000 1.000000
vt 0.000000 0.000000
vt 1.000000 0.000000
vt 1.000000 1.000000
vt 0.000000 1.000000
vt 1.000000 0.156623
vt 0.000000 0.156623
vt 1.000000 0.156623
vt 0.000000 0.156623
vt 1.000000 0.156623
vt 0.000000 0.156623
vt 1.000000 0.156623
vt 0.000000 0.156623
vt 1.000000 0.156623
vt 0.000000 0.156623
vt 1.000000 0.156623
vt 0.000000 0.156623
vt 1.000000 0.156623
vt 0.000000 0.156623
vt 1.000000 0.156623
vt 0.000000 0.156623
vt 1.000000 0.156623
vt 0.000000 0.156623
vt 1.000000 0.156623
vt 0.000000 0.156623
vt 1.000000 0.156623
vt 0.000000 0.156623
vt 1.000000 0.156623
vt 0.000000 0.156623
vt 1.000000 0.445930
vt 0.000000 0.445930
vt 1.000000 0.445930
vt 0.000000 0.445930
vt 1.000000 0.445930
vt 0.000000 0.445930
vt 1.000000 0.445930
vt 0.000000 0.445930
vt 1.000000 0.445930
vt 0.000000 0.445930
vt 1.000000 0.445930
vt 0.000000 0.445930
vt 1.000000 0.445930
vt 0.000000 0.445930
vt 1.000000 0.445930
vt 0.000000 0.445930
vt 1.000000 0.445930
vt 0.000000 0.445930
vt 1.000000 0.445930
vt 0.000000 0.445930
vt 1.000000 0.445930
vt 0.000000 0.445930
vt 1.000000 0.445930
vt 0.000000 0.445930
vt 1.000000 0.728375
vt 0.000000 0.728375
vt 1.000000 0.728375
vt 0.000000 0.728375
vt 1.000000 0.728375
vt 0.000000 0.728375
vt 1.000000 0.728375
vt 0.000000 0.728375
vt 1.000000 0.728375
vt 0.000000 0.728375
vt 1.000000 0.728375
vt 0.000000 0.728375
vt 1.000000 0.728375
vt 0.000000 0.728375
vt 1.000000 0.728375
vt 0.000000 0.728375
vt 1.000000 0.728375
vt 0.000000 0.728375
vt 1.000000 0.728375
vt 0.000000 0.728375
vt 1.000000 0.728375
vt 0.000000 0.728375
vt 1.000000 0.728375
vt 0.000000 0.728375
vt 0.520833 0.618321
vt 0.500000 0.618321
vt 0.479167 0.618321
vt 0.458333 0.618321
vt 0.437500 0.618321
vt 0.416667 0.618321
vt 0.395833 0.618321
vt 0.625000 0.618321
vt 0.375000 0.618321
vt 0.604167 0.618321
vt 0.583333 0.618321
vt 0.562500 0.618321
vt 0.541667 0.618321
vt 0.520833 0.509281
vt 0.500000 0.509281
vt 0.479167 0.509281
vt 0.458333 0.509281
vt 0.437500 0.509281
vt 0.416667 0.509281
vt 0.395833 0.509281
vt 0.625000 0.509281
vt 0.375000 0.509281
vt 0.604167 0.509281
vt 0.583333 0.509281
vt 0.562500 0.509281
vt 0.541667 0.509281
vt 0.520833 0.392791
vt 0.500000 0.392791
vt 0.479167 0.392791
vt 0.458333 0.392791
vt 0.437500 0.392791
vt 0.416667 0.392791
vt 0.395833 0.392791
vt 0.625000 0.392791
vt 0.375000 0.392791
vt 0.604167 0.392791
vt 0.583333 0.392791
vt 0.562500 0.392791
vt 0.541667 0.392791
vt 0.653561 0.853786
vt 0.606843 0.688440
vt 0.606843 0.618321
vt 0.606843 0.509281
vt 0.606843 0.392791
vt 0.606843 0.312500
vt 0.871537 0.000000
vt 0.871537 0.156623
vt 0.871537 0.445930
vt 0.871537 0.728375
vt 0.871537 1.000000
vt 0.000000 0.000000
vt 1.000000 0.000000
vt 1.000000 1.000000
vt 0.000000 1.000000
vt 0.000000 0.000000
vt 1.000000 0.000000
vt 1.000000 1.000000
vt 0.000000 1.000000
vt 0.000000 0.000000
vt 1.000000 0.000000
vt 1.000000 1.000000
vt 0.000000 1.000000
vt 0.000000 0.000000
vt 1.000000 0.000000
vt 1.000000 1.000000
vt 0.000000 1.000000
vt 0.000000 0.000000
vt 1.000000 0.000000
vt 1.000000 1.000000
vt 0.000000 1.000000
vt 0.000000 0.000000
vt 1.000000 0.000000
vt 1.000000 1.000000
vt 0.000000 1.000000
vt 0.000000 0.000000
vt 1.000000 0.000000
vt 1.000000 1.000000
vt 0.000000 1.000000
vt 0.000000 0.000000
vt 1.000000 0.000000
vt 1.000000 1.000000
vt 0.000000 1.000000
vt 0.000000 0.000000
vt 1.000000 0.000000
vt 1.000000 1.000000
vt 0.000000 1.000000
vt 0.000000 0.000000
vt 1.000000 0.000000
vt 1.000000 1.000000
vt 0.000000 1.000000
vt 0.000000 0.000000
vt 1.000000 0.000000
vt 1.000000 1.000000
vt 0.000000 1.000000
vt 0.000000 0.000000
vt 1.000000 0.000000
vt 1.000000 1.000000
vt 0.000000 1.000000
vt 0.000000 0.000000
vt 1.000000 0.000000
vt 1.000000 1.000000
vt 0.000000 1.000000
vn 0.684262 0.702532 -0.195534
vn 0.684262 0.702532 -0.195534
vn 0.670666 0.717280 -0.188989
vn 0.670870 0.717063 -0.189086
vn 0.394161 0.722039 -0.568592
vn 0.394161 0.722039 -0.568592
vn 0.394006 0.725606 -0.564140
vn 0.394010 0.725520 -0.564248
vn 0.043775 0.651293 -0.757562
vn 0.043775 0.651293 -0.757563
vn 0.039283 0.653923 -0.755541
vn 0.039171 0.653988 -0.755490
vn -0.396829 0.484530 -0.779588
vn -0.396829 0.484530 -0.779588
vn -0.399780 0.501338 -0.767356
vn -0.399825 0.501598 -0.767163
vn -0.816125 0.201422 -0.541636
vn -0.816125 0.201422 -0.541636
vn -0.851162 0.243855 -0.464821
vn -0.851446 0.244231 -0.464102
vn -0.989488 -0.095099 -0.108951
vn -0.989488 -0.095099 -0.108951
vn -0.996764 0.073218 0.033171
vn -0.997315 0.067525 0.028341
vn -0.865113 -0.316428 0.389170
vn -0.865113 -0.316428 0.389170
vn -0.902984 -0.175439 0.392225
vn -0.899885 -0.190549 0.392298
vn -0.556642 -0.375276 0.741160
vn -0.556642 -0.375276 0.741159
vn -0.564964 -0.339592 0.751993
vn -0.564796 -0.340351 0.751775
vn -0.206606 -0.304535 0.929824
vn -0.206606 -0.304535 0.929824
vn -0.221779 -0.270465 0.936836
vn -0.222190 -0.269526 0.937010
vn 0.216258 -0.097350 0.971471
vn 0.216258 -0.097350 0.971471
vn 0.191306 0.032277 0.981000
vn 0.188059 0.047928 0.980988
vn 0.614715 0.230471 0.754327
vn 0.614715 0.230471 0.754327
vn 0.457747 0.362563 0.811798
vn 0.451929 0.366850 0.813130
vn 0.787231 0.525223 0.323124
vn 0.787193 0.524608 0.324211
vn 0.739611 0.554807 0.381006
vn 0.732050 0.560068 0.387848
vn -0.387923 0.825038 0.410887
vn -0.387769 0.825406 0.410292
vn -0.407132 0.789909 0.458571
vn -0.387770 0.825406 0.410292
vn -0.387770 0.825406 0.410291
vn -0.388616 0.824761 0.410787
vn -0.413224 0.783290 0.464438
vn -0.482118 0.727997 0.487423
vn -0.531918 0.740730 0.410345
vn -0.415867 0.772206 0.480367
vn -0.287453 0.788671 0.543478
vn -0.373283 0.749089 0.547290
vn -0.407232 0.785998 0.465155
vn -0.388775 0.822988 0.414179
vn -0.577678 0.601036 0.552308
vn -0.639482 0.651702 0.407857
vn -0.651531 0.647775 0.394836
vn -0.574236 0.627245 0.526133
vn -0.470575 0.597526 0.649248
vn -0.457614 0.651643 0.604939
vn -0.339682 0.649057 0.680691
vn -0.328131 0.676888 0.658902
vn -0.203883 0.742641 0.637899
vn -0.182151 0.744691 0.642072
vn -0.114808 0.840283 0.529853
vn -0.075250 0.836350 0.543007
vn -0.100339 0.919751 0.379461
vn -0.081524 0.916807 0.390921
vn -0.156829 0.961814 0.224318
vn -0.167638 0.951398 0.258339
vn -0.260039 0.957630 0.123792
vn -0.289641 0.938946 0.185712
vn -0.394736 0.913741 0.096234
vn -0.413658 0.901683 0.125916
vn -0.537439 0.830984 0.143615
vn -0.558605 0.818490 0.134292
vn -0.607677 0.768836 0.199049
vn -0.648605 0.740411 0.176359
vn -0.653555 0.686498 0.318726
vn -0.679093 0.676332 0.285320
vn -0.181773 0.773539 0.607121
vn -0.074615 0.836275 0.543210
vn -0.108118 0.899520 0.423290
vn -0.197609 0.916800 0.347028
vn -0.360654 0.866746 0.344501
vn -0.467427 0.861461 0.198488
vn -0.605189 0.786047 0.126001
vn -0.729216 0.668287 0.147094
vn -0.733249 0.651253 0.195488
vn -0.679696 0.643560 0.351913
vn -0.568209 0.689372 0.449338
vn -0.412261 0.778480 0.473296
vn -0.296947 0.746890 0.594960
vn -0.159692 0.788764 0.593591
vn -0.097824 0.826736 0.554020
vn -0.126580 0.887687 0.442707
vn -0.160019 0.915456 0.369235
vn -0.370649 0.852611 0.368339
vn -0.510156 0.839340 0.187747
vn -0.619747 0.767156 0.165487
vn -0.745571 0.634822 0.202793
vn -0.720389 0.683455 0.118018
vn -0.671821 0.670023 0.315793
vn -0.600376 0.685429 0.411990
vn -0.403806 0.795906 0.451081
vn -0.255392 0.752328 0.607271
vn -0.152522 0.783039 0.602982
vn -0.025279 0.858711 0.511836
vn -0.134083 0.896899 0.421418
vn -0.127092 0.927206 0.352330
vn -0.355363 0.873759 0.332058
vn -0.517909 0.840569 0.158790
vn -0.609351 0.770954 0.185262
vn -0.730079 0.636206 0.249452
vn -0.687510 0.717794 0.110009
vn -0.658288 0.682780 0.316967
vn -0.621279 0.664237 0.415694
vn -0.416463 0.769233 0.484602
vn -0.241218 0.732003 0.637170
vn -0.937950 0.345475 0.029933
vn -0.912718 0.378713 0.153371
vn -0.906668 0.196210 -0.373437
vn -0.906668 0.196210 -0.373437
vn -0.880952 0.354579 0.313363
vn -0.888166 0.340982 0.308046
vn -0.983704 0.033336 0.176679
vn -0.983704 0.033335 0.176679
vn -0.934082 0.343999 0.095685
vn -0.955108 0.277864 0.102760
vn -0.992056 0.002974 0.125761
vn -0.992056 0.002974 0.125761
vn -0.505413 0.564659 -0.652471
vn -0.502414 0.569345 -0.650712
vn -0.549097 0.490656 -0.676572
vn -0.549097 0.490656 -0.676572
vn 0.011988 0.654094 -0.756319
vn 0.012203 0.654372 -0.756074
vn 0.004794 0.644710 -0.764412
vn 0.004794 0.644710 -0.764412
vn 0.407974 0.734179 -0.542713
vn 0.408360 0.734024 -0.542633
vn 0.421375 0.728705 -0.539844
vn 0.421375 0.728705 -0.539844
vn 0.607730 0.792454 -0.051772
vn 0.612011 0.789292 -0.049609
vn 0.675901 0.736823 -0.015801
vn 0.675901 0.736823 -0.015801
vn 0.301521 0.547369 0.780687
vn 0.312175 0.585193 0.748396
vn 0.401109 0.296504 0.866716
vn 0.384716 0.292864 0.875342
vn 0.089041 0.533741 0.840947
vn 0.075265 0.545382 0.834801
vn 0.331344 0.290053 0.897820
vn 0.331344 0.290052 0.897820
vn 0.205180 0.609139 0.766062
vn 0.324958 0.605311 0.726636
vn 0.687884 0.519579 0.506808
vn 0.687884 0.519579 0.506808
vn -0.221695 -0.134914 0.965738
vn -0.229049 -0.127372 0.965046
vn -0.165577 -0.191178 0.967489
vn -0.165577 -0.191178 0.967489
vn -0.624347 -0.214806 0.751032
vn -0.625988 -0.223177 0.747215
vn -0.637397 -0.291197 0.713393
vn -0.637397 -0.291197 0.713393
vn -0.928269 0.117970 0.352703
vn -0.927973 0.125455 0.350894
vn -0.924649 0.304485 0.228722
vn -0.903250 0.341411 0.259956
vn -0.912694 0.377903 -0.155495
vn -0.912795 0.379480 -0.150997
vn -0.441217 0.556590 -0.703943
vn -0.435376 0.550342 -0.712440
vn 0.027011 0.657323 -0.753125
vn 0.027690 0.657231 -0.753180
vn 0.396959 0.731727 -0.554075
vn 0.397226 0.732007 -0.553514
vn 0.629571 0.764685 -0.137465
vn 0.623807 0.770845 -0.129082
vn 0.469832 0.654568 0.592283
vn 0.496187 0.646695 0.579295
vn 0.136544 0.551605 0.822853
vn 0.184535 0.528855 0.828408
vn 0.136690 0.348510 0.927284
vn 0.138204 0.338798 0.930653
vn -0.242030 -0.187044 0.952069
vn -0.240600 -0.199025 0.950000
vn -0.586936 -0.271509 0.762751
vn -0.590839 -0.261853 0.763114
vn 0.188718 0.540262 0.820062
vn 0.303706 0.273837 0.912565
vn 0.323007 0.687679 0.650203
vn 0.691362 0.587181 0.420995
vn 0.787439 0.529152 0.316130
vn -0.387769 0.825407 0.410291
vn -0.387769 0.825407 0.410291
vn -0.387769 0.825407 0.410291
vn -0.387769 0.825407 0.410291
vn -0.387770 0.825407 0.410290
vn -0.387770 0.825407 0.410290
vn -0.387770 0.825407 0.410290
vn -0.387770 0.825407 0.410290
vn -0.387769 0.825407 0.410291
vn -0.387769 0.825407 0.410291
vn -0.387769 0.825407 0.410291
vn -0.387769 0.825407 0.410291
vn -0.387769 0.825407 0.410291
vn -0.387769 0.825407 0.410291
vn -0.387769 0.825407 0.410291
vn -0.387769 0.825407 0.410291
vn -0.387770 0.825407 0.410291
vn -0.387770 0.825407 0.410291
vn -0.387770 0.825407 0.410291
vn -0.387770 0.825407 0.410291
vn -0.387769 0.825408 0.410289
vn -0.387769 0.825408 0.410289
vn -0.387769 0.825408 0.410289
vn -0.387769 0.825408 0.410289
vn -0.387769 0.825406 0.410292
vn -0.387769 0.825406 0.410292
vn -0.387769 0.825406 0.410292
vn -0.387769 0.825406 0.410292
vn -0.387769 0.825406 0.410292
vn -0.387769 0.825406 0.410292
vn -0.387769 0.825406 0.410292
vn -0.387769 0.825406 0.410292
vn -0.387770 0.825406 0.410291
vn -0.387770 0.825406 0.410291
vn -0.387770 0.825406 0.410291
vn -0.387770 0.825406 0.410291
vn -0.387768 0.825407 0.410291
vn -0.387768 0.825407 0.410291
vn -0.387768 0.825407 0.410291
vn -0.387768 0.825407 0.410291
vn -0.387770 0.825406 0.410292
vn -0.387770 0.825406 0.410292
vn -0.387770 0.825406 0.410292
vn -0.387770 0.825406 0.410292
vn -0.387769 0.825407 0.410291
vn -0.387769 0.825407 0.410291
vn -0.387769 0.825407 0.410291
vn -0.387769 0.825407 0.410291
vn -0.387769 0.825407 0.410291
vn -0.387769 0.825407 0.410291
vn -0.387769 0.825407 0.410291
vn -0.387769 0.825407 0.410291
s 1
g pasted__pCylinder14 group
usemtl pasted__lambert5SG
f 1/1/1 2/2/2 104/192/3 105/194/4
s 2
f 2/2/5 3/3/6 103/191/7 104/192/8
s 3
f 3/3/9 4/4/10 102/190/11 103/191/12
s 4
f 4/4/13 5/5/14 101/189/15 102/190/16
s 5
f 5/5/17 6/6/18 100/188/19 101/189/20
s 6
f 6/6/21 7/7/22 99/187/23 100/188/24
s 7
f 7/7/25 8/8/26 98/186/27 99/187/28
s 8
f 8/8/29 9/9/30 109/198/31 98/186/32
s 9
f 9/9/33 10/10/34 108/197/35 109/198/36
s 10
f 10/10/37 11/11/38 107/196/39 108/197/40
s 11
f 11/11/41 12/12/42 106/195/43 107/196/44
s 12
f 114/204/45 1/13/46 105/193/47 113/203/48
s 13
f 13/37/49 14/36/50 25/39/51
f 14/36/50 15/35/52 25/39/51
f 15/35/52 16/34/53 25/39/51
f 16/34/53 17/33/54 25/39/51
f 17/33/54 18/32/55 25/39/51
f 18/32/55 19/31/56 25/39/51
f 19/31/56 20/30/57 25/39/51
f 20/30/57 21/29/58 25/39/51
f 21/29/58 22/28/59 25/39/51
f 22/28/59 23/27/60 25/39/51
f 23/27/60 24/38/61 25/39/51
f 24/38/61 110/199/62 13/37/49 25/39/51
s 14
f 2/40/63 1/41/64 46/104/65 47/107/66
f 3/44/67 2/45/63 47/106/66 48/109/68
f 4/48/69 3/49/67 48/108/68 49/111/70
f 5/52/71 4/53/69 49/110/70 38/89/72
f 6/56/73 5/57/71 38/88/72 39/91/74
f 7/60/75 6/61/73 39/90/74 40/93/76
f 8/64/77 7/65/75 40/92/76 41/95/78
f 9/68/79 8/69/77 41/94/78 42/97/80
f 10/72/81 9/73/79 42/96/80 43/99/82
f 11/76/83 10/77/81 43/98/82 44/101/84
f 12/80/85 11/81/83 44/100/84 45/103/86
f 1/84/64 114/205/87 115/206/88 46/105/65
f 39/91/74 38/88/72 50/112/89 51/115/90
f 40/93/76 39/90/74 51/114/90 52/117/91
f 41/95/78 40/92/76 52/116/91 53/119/92
f 42/97/80 41/94/78 53/118/92 54/121/93
f 43/99/82 42/96/80 54/120/93 55/123/94
f 44/101/84 43/98/82 55/122/94 56/125/95
f 45/103/86 44/100/84 56/124/95 57/127/96
f 46/105/65 115/206/88 116/207/97 58/129/98
f 47/107/66 46/104/65 58/128/98 59/131/99
f 48/109/68 47/106/66 59/130/99 60/133/100
f 49/111/70 48/108/68 60/132/100 61/135/101
f 38/89/72 49/110/70 61/134/101 50/113/89
f 51/115/90 50/112/89 62/136/102 63/139/103
f 52/117/91 51/114/90 63/138/103 64/141/104
f 53/119/92 52/116/91 64/140/104 65/143/105
f 54/121/93 53/118/92 65/142/105 66/145/106
f 55/123/94 54/120/93 66/144/106 67/147/107
f 56/125/95 55/122/94 67/146/107 68/149/108
f 57/127/96 56/124/95 68/148/108 69/151/109
f 58/129/98 116/207/97 117/208/110 70/153/111
f 59/131/99 58/128/98 70/152/111 71/155/112
f 60/133/100 59/130/99 71/154/112 72/157/113
f 61/135/101 60/132/100 72/156/113 73/159/114
f 50/113/89 61/134/101 73/158/114 62/137/102
f 63/139/103 62/136/102 30/58/115 31/59/116
f 64/141/104 63/138/103 31/62/116 32/63/117
f 65/143/105 64/140/104 32/66/117 33/67/118
f 66/145/106 65/142/105 33/70/118 34/71/119
f 67/147/107 66/144/106 34/74/119 35/75/120
f 68/149/108 67/146/107 35/78/120 36/79/121
f 69/151/109 68/148/108 36/82/121 37/83/122
f 70/153/111 117/208/110 118/209/123 26/87/124
f 71/155/112 70/152/111 26/42/124 27/43/125
f 72/157/113 71/154/112 27/46/125 28/47/126
f 73/159/114 72/156/113 28/50/126 29/51/127
f 62/137/102 73/158/114 29/54/127 30/55/115
s 7
f 75/161/128 74/160/129 20/21/130 19/20/131
s 6
f 76/162/132 75/161/133 19/20/134 18/19/135
s 5
f 77/163/136 76/162/137 18/19/138 17/18/139
s 4
f 78/164/140 77/163/141 17/18/142 16/17/143
s 3
f 79/165/144 78/164/145 16/17/146 15/16/147
s 2
f 80/166/148 79/165/149 15/16/150 14/15/151
s 1
f 81/168/152 80/166/153 14/15/154 13/14/155
s 12
f 111/201/156 81/167/157 13/26/158 110/200/159
s 11
f 83/170/160 82/169/161 24/25/162 23/24/163
s 10
f 84/171/164 83/170/165 23/24/166 22/23/167
s 9
f 85/172/168 84/171/169 22/23/170 21/22/171
s 8
f 74/160/172 85/172/173 21/22/174 20/21/175
s 7
f 87/174/176 86/173/177 74/160/129 75/161/128
s 6
f 88/175/178 87/174/179 75/161/133 76/162/132
s 5
f 89/176/180 88/175/181 76/162/137 77/163/136
s 4
f 90/177/182 89/176/183 77/163/141 78/164/140
s 3
f 91/178/184 90/177/185 78/164/145 79/165/144
s 2
f 92/179/186 91/178/187 79/165/149 80/166/148
s 1
f 93/181/188 92/179/189 80/166/153 81/168/152
s 12
f 112/202/190 93/180/191 81/167/157 111/201/156
s 11
f 95/183/192 94/182/193 82/169/161 83/170/160
s 10
f 96/184/194 95/183/195 83/170/165 84/171/164
s 9
f 97/185/196 96/184/197 84/171/169 85/172/168
s 8
f 86/173/198 97/185/199 85/172/173 74/160/172
s 7
f 99/187/28 98/186/27 86/173/177 87/174/176
s 6
f 100/188/24 99/187/23 87/174/179 88/175/178
s 5
f 101/189/20 100/188/19 88/175/181 89/176/180
s 4
f 102/190/16 101/189/15 89/176/183 90/177/182
s 3
f 103/191/12 102/190/11 90/177/185 91/178/184
s 2
f 104/192/8 103/191/7 91/178/187 92/179/186
s 1
f 105/194/4 104/192/3 92/179/189 93/181/188
s 12
f 113/203/48 105/193/47 93/180/191 112/202/190
s 11
f 107/196/44 106/195/43 94/182/193 95/183/192
s 10
f 108/197/40 107/196/39 95/183/195 96/184/194
s 9
f 109/198/36 108/197/35 96/184/197 97/185/196
s 8
f 98/186/32 109/198/31 97/185/199 86/173/198
s 12
f 82/169/200 111/201/156 110/200/159 24/25/201
f 94/182/202 112/202/190 111/201/156 82/169/200
f 106/195/203 113/203/48 112/202/190 94/182/202
f 12/12/204 114/204/45 113/203/48 106/195/203
s 14
f 115/206/88 114/205/87 12/85/85 45/102/86
f 116/207/97 115/206/88 45/102/86 57/126/96
f 117/208/110 116/207/97 57/126/96 69/150/109
f 118/209/123 117/208/110 69/150/109 37/86/122
s off
f 1/210/205 2/211/206 120/212/207 119/213/208
f 2/214/209 3/215/210 121/216/211 120/217/212
f 3/218/213 4/219/214 122/220/215 121/221/216
f 4/222/217 5/223/218 123/224/219 122/225/220
f 5/226/221 6/227/222 124/228/223 123/229/224
f 6/230/225 7/231/226 125/232/227 124/233/228
f 7/234/229 8/235/230 126/236/231 125/237/232
f 8/238/233 9/239/234 127/240/235 126/241/236
f 9/242/237 10/243/238 128/244/239 127/245/240
f 10/246/241 11/247/242 129/248/243 128/249/244
f 11/250/245 12/251/246 130/252/247 129/253/248
f 12/254/249 114/255/250 131/256/251 130/257/252
f 114/258/253 1/259/254 119/260/255 131/261/256
