# This file uses centimeters as units for non-parametric coordinates.

mtllib Steen1.mtl
g default
v -0.586334 1.031248 0.566289
v -0.365076 0.991215 0.610997
v -0.100084 1.000024 0.655591
v 0.163317 1.005131 0.706343
v 0.427090 0.993871 0.667035
v 0.695620 0.988697 0.601576
v -0.633450 1.111782 0.609686
v -0.379540 1.126639 0.710959
v -0.089990 1.199019 0.732355
v 0.170433 1.165248 0.758260
v 0.462969 1.127164 0.709708
v 0.733042 1.103587 0.638775
v -0.680360 1.195619 0.671107
v -0.375338 1.263175 0.820726
v -0.072608 1.395382 0.809193
v 0.185260 1.399644 0.801992
v 0.475268 1.292627 0.734289
v 0.744535 1.245911 0.664753
v -0.675536 1.301565 0.746427
v -0.352392 1.372061 0.892178
v -0.065579 1.528964 0.831524
v 0.192607 1.580162 0.790414
v 0.456334 1.464589 0.725677
v 0.716983 1.395699 0.666331
v -0.653166 1.401967 0.796852
v -0.335187 1.463171 0.915390
v -0.063797 1.624533 0.819769
v 0.188663 1.683931 0.760046
v 0.429654 1.595741 0.696273
v 0.669167 1.529385 0.638450
v -0.722429 1.375241 0.671112
v -0.422772 1.472748 0.788273
v -0.077047 1.755268 0.642919
v 0.176067 1.738594 0.622112
v 0.453213 1.612736 0.551254
v 0.728927 1.529753 0.514312
v -0.768846 1.341549 0.528894
v -0.467927 1.518490 0.599601
v -0.100781 1.814982 0.369096
v 0.159020 1.736186 0.441156
v 0.479401 1.579196 0.361671
v 0.772940 1.512819 0.372527
v -0.721271 1.348193 0.414513
v -0.445100 1.519512 0.345771
v -0.149797 1.674082 0.138915
v 0.127822 1.635402 0.212381
v 0.480399 1.527827 0.197598
v 0.763353 1.499003 0.225963
v -0.638103 1.373213 0.300713
v -0.411559 1.465885 0.140821
v -0.175986 1.520510 0.021189
v 0.095701 1.489383 0.067814
v 0.446079 1.482583 0.076407
v 0.709340 1.498357 0.100120
v -0.645313 1.304238 0.288986
v -0.419878 1.369472 0.160401
v -0.179363 1.425002 0.039450
v 0.103181 1.365096 0.062335
v 0.461492 1.389348 0.062278
v 0.732120 1.392860 0.110806
v -0.640749 1.239594 0.272835
v -0.434685 1.253613 0.189673
v -0.185594 1.316766 0.082926
v 0.113043 1.248084 0.088929
v 0.455849 1.283617 0.080489
v 0.730007 1.285224 0.121973
v -0.629106 1.170085 0.256406
v -0.441634 1.131534 0.211933
v -0.195771 1.162518 0.145270
v 0.113183 1.107461 0.151034
v 0.434197 1.166086 0.101567
v 0.697699 1.181419 0.134270
v -0.617460 1.088933 0.244376
v -0.430913 1.028182 0.220592
v -0.188483 0.981541 0.204510
v 0.113371 0.967109 0.198792
v 0.407417 1.040671 0.136221
v 0.650616 1.078253 0.145764
v -0.617644 1.066632 0.312509
v -0.433915 0.999570 0.303577
v -0.190270 0.969325 0.301458
v 0.122439 0.932814 0.326720
v 0.436165 1.010254 0.265752
v 0.696793 1.053508 0.266510
v -0.613218 1.044481 0.386183
v -0.425931 0.975538 0.400037
v -0.172777 0.969012 0.418259
v 0.136271 0.941309 0.477549
v 0.447067 0.991809 0.426092
v 0.726536 1.023324 0.390960
v -0.603714 1.030904 0.471333
v -0.401086 0.970658 0.505477
v -0.138960 0.976612 0.544954
v 0.152049 0.973904 0.607579
v 0.440855 0.989265 0.566925
v 0.722830 1.000761 0.503682
v 0.765589 1.151672 0.266325
v 0.801383 1.123744 0.403584
v 0.782609 1.110119 0.533233
v 0.809919 1.258832 0.260301
v 0.843737 1.245448 0.406520
v 0.810594 1.245633 0.550784
v 0.807115 1.378653 0.246957
v 0.831272 1.381028 0.396373
v 0.788788 1.393319 0.544444
v -0.648201 1.145592 0.330932
v -0.662412 1.118417 0.411526
v -0.659568 1.104843 0.504528
v -0.696051 1.207968 0.357483
v -0.743256 1.175441 0.441465
v -0.739792 1.169565 0.545276
v -0.728373 1.269813 0.384941
v -0.793260 1.242860 0.478356
v -0.763598 1.259225 0.603859
v 0.320629 1.526184 0.776314
v 0.589285 1.428776 0.689250
v 0.467474 1.378080 0.733484
v 0.444599 1.531215 0.711979
vt 0.375000 0.000000
vt 0.425000 0.000000
vt 0.475000 0.000000
vt 0.525000 0.000000
vt 0.575000 0.000000
vt 0.625000 0.000000
vt 0.375000 0.062500
vt 0.425000 0.062500
vt 0.475000 0.062500
vt 0.525000 0.062500
vt 0.575000 0.062500
vt 0.625000 0.062500
vt 0.375000 0.125000
vt 0.425000 0.125000
vt 0.475000 0.125000
vt 0.525000 0.125000
vt 0.575000 0.125000
vt 0.625000 0.125000
vt 0.375000 0.187500
vt 0.425000 0.187500
vt 0.475000 0.187500
vt 0.525000 0.187500
vt 0.575000 0.187500
vt 0.625000 0.187500
vt 0.375000 0.250000
vt 0.425000 0.250000
vt 0.475000 0.250000
vt 0.525000 0.250000
vt 0.575000 0.250000
vt 0.625000 0.250000
vt 0.375000 0.312500
vt 0.425000 0.312500
vt 0.475000 0.312500
vt 0.525000 0.312500
vt 0.575000 0.312500
vt 0.625000 0.312500
vt 0.375000 0.375000
vt 0.425000 0.375000
vt 0.475000 0.375000
vt 0.525000 0.375000
vt 0.575000 0.375000
vt 0.625000 0.375000
vt 0.375000 0.437500
vt 0.425000 0.437500
vt 0.475000 0.437500
vt 0.525000 0.437500
vt 0.575000 0.437500
vt 0.625000 0.437500
vt 0.375000 0.500000
vt 0.425000 0.500000
vt 0.475000 0.500000
vt 0.525000 0.500000
vt 0.575000 0.500000
vt 0.625000 0.500000
vt 0.375000 0.562500
vt 0.425000 0.562500
vt 0.475000 0.562500
vt 0.525000 0.562500
vt 0.575000 0.562500
vt 0.625000 0.562500
vt 0.375000 0.625000
vt 0.425000 0.625000
vt 0.475000 0.625000
vt 0.525000 0.625000
vt 0.575000 0.625000
vt 0.625000 0.625000
vt 0.375000 0.687500
vt 0.425000 0.687500
vt 0.475000 0.687500
vt 0.525000 0.687500
vt 0.575000 0.687500
vt 0.625000 0.687500
vt 0.375000 0.750000
vt 0.425000 0.750000
vt 0.475000 0.750000
vt 0.525000 0.750000
vt 0.575000 0.750000
vt 0.625000 0.750000
vt 0.375000 0.812500
vt 0.425000 0.812500
vt 0.475000 0.812500
vt 0.525000 0.812500
vt 0.575000 0.812500
vt 0.625000 0.812500
vt 0.375000 0.875000
vt 0.425000 0.875000
vt 0.475000 0.875000
vt 0.525000 0.875000
vt 0.575000 0.875000
vt 0.625000 0.875000
vt 0.375000 0.937500
vt 0.425000 0.937500
vt 0.475000 0.937500
vt 0.525000 0.937500
vt 0.575000 0.937500
vt 0.625000 0.937500
vt 0.375000 1.000000
vt 0.425000 1.000000
vt 0.475000 1.000000
vt 0.525000 1.000000
vt 0.575000 1.000000
vt 0.625000 1.000000
vt 0.875000 0.000000
vt 0.812500 0.000000
vt 0.750000 0.000000
vt 0.687500 0.000000
vt 0.875000 0.062500
vt 0.812500 0.062500
vt 0.750000 0.062500
vt 0.687500 0.062500
vt 0.875000 0.125000
vt 0.812500 0.125000
vt 0.750000 0.125000
vt 0.687500 0.125000
vt 0.875000 0.187500
vt 0.812500 0.187500
vt 0.750000 0.187500
vt 0.687500 0.187500
vt 0.875000 0.250000
vt 0.812500 0.250000
vt 0.750000 0.250000
vt 0.687500 0.250000
vt 0.125000 0.000000
vt 0.187500 0.000000
vt 0.250000 0.000000
vt 0.312500 0.000000
vt 0.125000 0.062500
vt 0.187500 0.062500
vt 0.250000 0.062500
vt 0.312500 0.062500
vt 0.125000 0.125000
vt 0.187500 0.125000
vt 0.250000 0.125000
vt 0.312500 0.125000
vt 0.125000 0.187500
vt 0.187500 0.187500
vt 0.250000 0.187500
vt 0.312500 0.187500
vt 0.125000 0.250000
vt 0.187500 0.250000
vt 0.250000 0.250000
vt 0.312500 0.250000
vt 0.550000 0.187500
vt 0.600000 0.187500
vt 0.575000 0.156250
vt 0.575000 0.218750
vn -0.266399 -0.584654 0.766297
vn -0.139310 -0.524219 0.840111
vn -0.093566 -0.543449 0.834211
vn -0.254789 -0.603404 0.755636
vn -0.085380 -0.411362 0.907464
vn 0.002074 -0.394374 0.918948
vn -0.031311 -0.326987 0.944510
vn 0.019199 -0.263239 0.964539
vn 0.162784 -0.337210 0.927249
vn 0.174590 -0.248704 0.952715
vn 0.211573 -0.355489 0.910420
vn 0.219856 -0.269560 0.937550
vn -0.018033 -0.518130 0.855112
vn -0.248868 -0.596976 0.762682
vn 0.119127 -0.293742 0.948433
vn 0.101238 -0.116812 0.987981
vn 0.197388 -0.095070 0.975705
vn 0.237408 -0.094256 0.966826
vn 0.001296 -0.359558 0.933122
vn -0.280024 -0.468017 0.838181
vn 0.204823 -0.067245 0.976486
vn 0.212160 0.159347 0.964156
vn 0.261679 0.120326 0.957625
vn 0.230652 0.032534 0.972492
vn 0.363126 0.179002 0.914384
vn 0.272830 0.167460 0.947376
vn 0.094495 -0.167944 0.981257
vn -0.315232 -0.283138 0.905793
vn 0.189122 0.136398 0.972434
vn 0.246842 0.281616 0.927233
vn 0.314887 0.293042 0.902758
vn -0.287871 0.950850 0.114082
vn -0.365456 0.825498 0.430111
vn -0.421869 0.856379 0.297728
vn -0.432100 0.888936 0.151928
vn -0.285254 0.817670 0.500046
vn -0.286933 0.906775 0.308914
vn 0.185348 0.894034 0.407860
vn 0.253498 0.947693 0.193953
vn 0.378799 0.901979 0.207232
vn 0.361202 0.932215 0.022537
vn 0.301086 0.941094 0.153911
vn 0.268332 0.963272 -0.010280
vn -0.542395 0.833971 0.101490
vn -0.499342 0.866323 -0.011897
vn -0.283237 0.943992 -0.169283
vn 0.299973 0.938759 -0.169550
vn 0.286411 0.930539 -0.228180
vn 0.215889 0.965733 -0.144058
vn -0.593459 0.775481 -0.215488
vn -0.523507 0.842090 -0.129710
vn -0.261028 0.824690 -0.501748
vn 0.264700 0.810460 -0.522579
vn 0.178585 0.908686 -0.377356
vn 0.138337 0.969025 -0.204579
vn -0.554304 0.720356 -0.416934
vn -0.540961 0.796677 -0.269570
vn -0.209387 0.725357 -0.655755
vn 0.191725 0.696409 -0.691561
vn 0.106075 0.851297 -0.513849
vn 0.042190 0.979487 -0.197041
vn -0.540660 0.010819 -0.841172
vn -0.452963 -0.107862 -0.884981
vn -0.435174 -0.133821 -0.890346
vn -0.479208 -0.019476 -0.877485
vn -0.106476 -0.098271 -0.989447
vn -0.146315 -0.171163 -0.974318
vn 0.060941 0.020242 -0.997936
vn 0.016102 -0.137340 -0.990393
vn 0.060558 0.071048 -0.995633
vn 0.066844 -0.048566 -0.996581
vn 0.132457 0.042615 -0.990272
vn 0.149645 -0.057804 -0.987049
vn -0.332761 -0.178911 -0.925884
vn -0.377439 -0.038883 -0.925218
vn -0.168670 -0.306143 -0.936924
vn -0.035688 -0.312477 -0.949255
vn 0.056228 -0.209891 -0.976107
vn 0.151530 -0.160453 -0.975343
vn -0.221809 -0.171129 -0.959956
vn -0.271610 -0.026703 -0.962037
vn -0.130461 -0.317234 -0.939331
vn -0.063025 -0.318756 -0.945739
vn 0.010799 -0.261863 -0.965045
vn 0.125506 -0.200874 -0.971544
vn -0.172283 -0.198634 -0.964813
vn -0.180536 -0.003918 -0.983561
vn -0.078811 -0.292539 -0.953000
vn -0.064346 -0.304690 -0.950276
vn -0.051774 -0.270012 -0.961464
vn 0.104618 -0.229185 -0.967744
vn -0.334652 -0.890864 -0.307195
vn -0.240647 -0.934514 -0.262247
vn -0.208170 -0.956050 -0.206480
vn -0.334143 -0.902635 -0.271289
vn -0.111781 -0.971352 -0.209716
vn -0.095967 -0.987929 -0.121596
vn 0.069514 -0.968724 -0.238203
vn 0.057366 -0.994283 -0.090055
vn 0.171516 -0.949808 -0.261623
vn 0.167347 -0.967624 -0.188938
vn 0.158206 -0.953248 -0.257466
vn 0.136519 -0.967720 -0.211850
vn -0.155954 -0.984766 -0.076899
vn -0.325520 -0.933207 -0.152187
vn -0.070166 -0.996954 0.034039
vn 0.044123 -0.996387 0.072569
vn 0.132761 -0.989563 -0.056028
vn 0.094815 -0.984883 -0.144967
vn -0.116274 -0.989692 0.083608
vn -0.292671 -0.955524 0.036289
vn -0.044364 -0.984590 0.169157
vn 0.016215 -0.983434 0.180541
vn 0.063378 -0.997175 0.040308
vn 0.041815 -0.996089 -0.077836
vn -0.068634 -0.978670 0.193632
vn -0.256366 -0.951952 0.167524
vn -0.037286 -0.968490 0.246246
vn -0.000575 -0.977098 0.212791
vn 0.021479 -0.995212 0.095352
vn 0.002814 -0.999309 -0.037055
vn 0.774114 -0.509015 -0.376366
vn 0.764563 -0.465895 -0.445405
vn 0.785588 -0.388291 -0.481749
vn 0.822349 -0.422263 -0.381360
vn 0.819340 -0.548514 -0.166777
vn 0.897060 -0.430818 -0.098381
vn 0.853677 -0.506804 0.119939
vn 0.902643 -0.359109 0.237227
vn 0.848051 -0.450600 0.278872
vn 0.871627 -0.296408 0.390397
vn 0.845839 -0.171367 -0.505163
vn 0.915280 -0.171998 -0.364251
vn 0.994279 -0.106593 0.006850
vn 0.933947 -0.032398 0.355940
vn 0.874161 0.001730 0.485634
vn 0.883129 0.088600 -0.460688
vn 0.941880 0.144795 -0.303144
vn 0.966410 0.250838 0.055967
vn 0.889354 0.289228 0.354115
vn 0.838521 0.278737 0.468176
vn 0.882970 0.200622 -0.424399
vn 0.918259 0.280660 -0.279340
vn 0.916352 0.397682 0.046344
vn 0.850670 0.425027 0.309374
vn 0.804715 0.412478 0.426962
vn -0.956230 -0.214106 -0.199458
vn -0.924604 -0.327805 -0.194040
vn -0.864379 -0.363957 -0.346964
vn -0.905322 -0.224158 -0.360756
vn -0.860016 -0.499309 -0.105182
vn -0.775916 -0.603180 -0.184737
vn -0.803231 -0.591545 0.069961
vn -0.708929 -0.696479 0.111074
vn -0.770958 -0.607975 0.189711
vn -0.648820 -0.703610 0.289767
vn -0.797546 -0.257987 -0.545310
vn -0.821268 -0.106994 -0.560421
vn -0.785320 -0.569397 -0.243020
vn -0.726177 -0.640481 0.249903
vn -0.716781 -0.509318 0.476257
vn -0.831854 0.107923 -0.544400
vn -0.798394 0.136936 -0.586358
vn -0.986333 -0.073408 -0.147510
vn -0.898645 -0.181695 0.399281
vn -0.845444 -0.121168 0.520138
vn -0.830361 0.294696 -0.472922
vn -0.793131 0.234565 -0.562069
vn -0.973377 0.224549 0.045995
vn -0.892261 0.019125 0.451115
vn -0.859518 -0.025226 0.510482
vn 0.262862 0.118635 0.957512
vn 0.284602 0.259495 0.922857
vn 0.323524 0.321467 0.889939
s 1
g pCube1
usemtl initialShadingGroup
f 1/1/1 2/2/2 8/8/3 7/7/4
f 2/2/2 3/3/5 9/9/6 8/8/3
f 3/3/5 4/4/7 10/10/8 9/9/6
f 4/4/7 5/5/9 11/11/10 10/10/8
f 5/5/9 6/6/11 12/12/12 11/11/10
f 7/7/4 8/8/3 14/14/13 13/13/14
f 8/8/3 9/9/6 15/15/15 14/14/13
f 9/9/6 10/10/8 16/16/16 15/15/15
f 10/10/8 11/11/10 17/17/17 16/16/16
f 11/11/10 12/12/12 18/18/18 17/17/17
f 13/13/14 14/14/13 20/20/19 19/19/20
f 14/14/13 15/15/15 21/21/21 20/20/19
f 15/15/15 16/16/16 22/22/22 21/21/21
f 115/143/23 117/145/24 23/23/25
f 117/145/24 116/144/26 23/23/25
f 19/19/20 20/20/19 26/26/27 25/25/28
f 20/20/19 21/21/21 27/27/29 26/26/27
f 21/21/21 22/22/22 28/28/30 27/27/29
f 118/146/31 115/143/23 23/23/25
f 23/23/25 116/144/26 118/146/31
s 2
f 25/25/32 26/26/33 32/32/34 31/31/35
f 26/26/33 27/27/36 33/33/37 32/32/34
f 27/27/36 28/28/38 34/34/39 33/33/37
f 28/28/38 29/29/40 35/35/41 34/34/39
f 29/29/40 30/30/42 36/36/43 35/35/41
f 31/31/35 32/32/34 38/38/44 37/37/45
f 32/32/34 33/33/37 39/39/46 38/38/44
f 33/33/37 34/34/39 40/40/47 39/39/46
f 34/34/39 35/35/41 41/41/48 40/40/47
f 35/35/41 36/36/43 42/42/49 41/41/48
f 37/37/45 38/38/44 44/44/50 43/43/51
f 38/38/44 39/39/46 45/45/52 44/44/50
f 39/39/46 40/40/47 46/46/53 45/45/52
f 40/40/47 41/41/48 47/47/54 46/46/53
f 41/41/48 42/42/49 48/48/55 47/47/54
f 43/43/51 44/44/50 50/50/56 49/49/57
f 44/44/50 45/45/52 51/51/58 50/50/56
f 45/45/52 46/46/53 52/52/59 51/51/58
f 46/46/53 47/47/54 53/53/60 52/52/59
f 47/47/54 48/48/55 54/54/61 53/53/60
s 3
f 49/49/62 50/50/63 56/56/64 55/55/65
f 50/50/63 51/51/66 57/57/67 56/56/64
f 51/51/66 52/52/68 58/58/69 57/57/67
f 52/52/68 53/53/70 59/59/71 58/58/69
f 53/53/70 54/54/72 60/60/73 59/59/71
f 55/55/65 56/56/64 62/62/74 61/61/75
f 56/56/64 57/57/67 63/63/76 62/62/74
f 57/57/67 58/58/69 64/64/77 63/63/76
f 58/58/69 59/59/71 65/65/78 64/64/77
f 59/59/71 60/60/73 66/66/79 65/65/78
f 61/61/75 62/62/74 68/68/80 67/67/81
f 62/62/74 63/63/76 69/69/82 68/68/80
f 63/63/76 64/64/77 70/70/83 69/69/82
f 64/64/77 65/65/78 71/71/84 70/70/83
f 65/65/78 66/66/79 72/72/85 71/71/84
f 67/67/81 68/68/80 74/74/86 73/73/87
f 68/68/80 69/69/82 75/75/88 74/74/86
f 69/69/82 70/70/83 76/76/89 75/75/88
f 70/70/83 71/71/84 77/77/90 76/76/89
f 71/71/84 72/72/85 78/78/91 77/77/90
s 4
f 73/73/92 74/74/93 80/80/94 79/79/95
f 74/74/93 75/75/96 81/81/97 80/80/94
f 75/75/96 76/76/98 82/82/99 81/81/97
f 76/76/98 77/77/100 83/83/101 82/82/99
f 77/77/100 78/78/102 84/84/103 83/83/101
f 79/79/95 80/80/94 86/86/104 85/85/105
f 80/80/94 81/81/97 87/87/106 86/86/104
f 81/81/97 82/82/99 88/88/107 87/87/106
f 82/82/99 83/83/101 89/89/108 88/88/107
f 83/83/101 84/84/103 90/90/109 89/89/108
f 85/85/105 86/86/104 92/92/110 91/91/111
f 86/86/104 87/87/106 93/93/112 92/92/110
f 87/87/106 88/88/107 94/94/113 93/93/112
f 88/88/107 89/89/108 95/95/114 94/94/113
f 89/89/108 90/90/109 96/96/115 95/95/114
f 91/91/111 92/92/110 2/98/116 1/97/117
f 92/92/110 93/93/112 3/99/118 2/98/116
f 93/93/112 94/94/113 4/100/119 3/99/118
f 94/94/113 95/95/114 5/101/120 4/100/119
f 95/95/114 96/96/115 6/102/121 5/101/120
s 5
f 84/104/122 78/103/123 72/107/124 97/108/125
f 90/105/126 84/104/122 97/108/125 98/109/127
f 96/106/128 90/105/126 98/109/127 99/110/129
f 6/6/130 96/106/128 99/110/129 12/12/131
f 97/108/125 72/107/124 66/111/132 100/112/133
f 98/109/127 97/108/125 100/112/133 101/113/134
f 99/110/129 98/109/127 101/113/134 102/114/135
f 12/12/131 99/110/129 102/114/135 18/18/136
f 100/112/133 66/111/132 60/115/137 103/116/138
f 101/113/134 100/112/133 103/116/138 104/117/139
f 102/114/135 101/113/134 104/117/139 105/118/140
f 18/18/136 102/114/135 105/118/140 24/24/141
f 103/116/138 60/115/137 54/119/142 48/120/143
f 104/117/139 103/116/138 48/120/143 42/121/144
f 105/118/140 104/117/139 42/121/144 36/122/145
f 24/24/141 105/118/140 36/122/145 30/30/146
s 6
f 73/123/147 79/124/148 106/128/149 67/127/150
f 79/124/148 85/125/151 107/129/152 106/128/149
f 85/125/151 91/126/153 108/130/154 107/129/152
f 91/126/153 1/1/155 7/7/156 108/130/154
f 67/127/150 106/128/149 109/132/157 61/131/158
f 106/128/149 107/129/152 110/133/159 109/132/157
f 107/129/152 108/130/154 111/134/160 110/133/159
f 108/130/154 7/7/156 13/13/161 111/134/160
f 61/131/158 109/132/157 112/136/162 55/135/163
f 109/132/157 110/133/159 113/137/164 112/136/162
f 110/133/159 111/134/160 114/138/165 113/137/164
f 111/134/160 13/13/161 19/19/166 114/138/165
f 55/135/163 112/136/162 43/140/167 49/139/168
f 112/136/162 113/137/164 37/141/169 43/140/167
f 113/137/164 114/138/165 31/142/170 37/141/169
f 114/138/165 19/19/166 25/25/171 31/142/170
s 1
f 17/17/17 18/18/18 24/24/172 116/144/26 117/145/24
f 118/146/31 116/144/26 24/24/172 30/30/173 29/29/174
f 22/22/22 115/143/23 118/146/31 29/29/174 28/28/30
f 16/16/16 17/17/17 117/145/24 115/143/23 22/22/22
